<svg version="1.0" xmlns="http://www.w3.org/2000/svg" width="800px" height="800px" viewBox="0 0 800 800" preserveAspectRatio="xMidYMid meet"><g transform="translate(0,800) scale(0.1,-0.1)" fill="#000" stroke="none"><path d="M0 4000 l0 -4000 2045 0 2045 0 0 4000 0 4000 -2045 0 -2045 0 0 -4000z m2492 1215 c298 -41 520 -138 687 -299 170 -165 264 -359 306 -633 23 -148 21 -448 -4 -593 -92 -536 -418 -850 -966 -931 -113 -16 -189 -19 -577 -19 l-448 0 0 1245 0 1245 445 0 c346 0 469 -3 557 -15z"/><path d="M2150 3985 l0 -718 98 6 c303 18 479 155 553 432 31 112 34 438 6 560 -65 280 -236 414 -549 432 l-108 6 0 -718z"/><path d="M4720 3985 l0 -1245 545 0 c575 0 649 4 825 50 304 78 513 269 565 515 19 90 19 262 0 343 -8 35 -27 88 -41 118 -51 107 -195 233 -309 270 -27 9 -54 20 -59 24 -4 5 11 18 35 31 24 12 71 49 104 83 169 171 221 487 117 711 -67 142 -231 252 -447 300 -182 40 -277 45 -820 45 l-515 0 0 -1245z m1027 725 c107 -24 156 -78 161 -181 6 -91 -15 -146 -74 -197 -64 -57 -128 -72 -307 -72 l-147 0 0 236 0 237 158 -6 c86 -3 180 -11 209 -17z m-32 -939 c184 -16 270 -63 301 -166 42 -142 -19 -273 -154 -327 -51 -20 -78 -22 -269 -26 l-213 -4 0 266 0 266 113 0 c61 0 162 -4 222 -10z"/></g></svg>
